<svg width="31" height="28" viewBox="0 0 31 28" fill="none" xmlns="http://www.w3.org/2000/svg">
<path fill-rule="evenodd" clip-rule="evenodd" d="M13.9691 0C21.6829 0 27.9383 6.25538 27.9383 13.9691C27.9383 21.6829 21.6829 27.9383 13.9691 27.9383C6.25538 27.9383 0 21.6829 0 13.9691C0 6.25538 6.25538 0 13.9691 0Z" fill="#E0E0E0"/>
<path d="M14.1786 19.8082C9.71125 19.8082 6.09045 18.5175 6.09045 16.7881C6.09045 15.8857 7.07667 15.0727 8.65519 14.5C9.88726 15.2906 11.9547 15.6957 14.2987 15.6957C16.5869 15.6957 18.6096 15.2012 19.8528 14.4441C21.342 15.0112 22.2667 15.8019 22.2667 16.6736C22.2667 18.4057 18.6459 19.8082 14.1786 19.8082Z" fill="black"/>
<path d="M14.2263 15.3074C10.8402 15.3074 8.09387 14.2457 8.09387 12.9354C8.09387 12.209 8.9404 11.558 10.2675 11.125C11.2146 11.6195 12.6338 11.9352 14.2263 11.9352C15.8188 11.9352 17.2381 11.6195 18.1852 11.125C19.515 11.5608 20.3588 12.209 20.3588 12.9354C20.3616 14.2457 17.6152 15.3074 14.2263 15.3074Z" fill="black"/>
<path d="M14.2039 11.5413C11.5861 11.5413 9.46277 10.664 9.46277 9.58559C9.46277 8.50717 11.5861 7.62991 14.2039 7.62991C16.8217 7.62991 18.945 8.50717 18.945 9.58559C18.945 10.664 16.8217 11.5413 14.2039 11.5413Z" fill="black"/>
<circle cx="25.642" cy="7.35802" r="5.35802" fill="black"/>
<path d="M22.9964 5.73497C22.9964 5.50924 22.9833 5.29095 22.9631 5.06522H23.9155L23.9488 5.52308C24.0555 5.36868 24.3152 4.98749 24.9877 4.98749C25.7609 4.98749 25.9804 5.48794 26.0469 5.65724C26.3268 5.08651 26.7798 4.99494 27.1261 4.99494C27.8057 4.99494 28.0795 5.42512 28.152 5.56567C28.3322 5.87553 28.3181 6.3057 28.3181 6.61556V8.56519H27.3255V6.53144C27.3255 6.15024 27.2721 5.72752 26.7587 5.72752C26.1687 5.72752 26.1556 6.31316 26.1556 6.84129V8.56519H25.1629V6.51014C25.1629 6.23543 25.1559 5.72752 24.6102 5.72752C23.99 5.72752 23.99 6.29186 23.99 6.53144V8.56519H22.9964V5.73497ZM22.9631 9.34782H28.3212V10.2156H22.9631V9.34782Z" fill="white"/>
<g clip-path="url(#clip0)">
<path d="M25.642 25.9383C28.6011 25.9383 31 23.5394 31 20.5803C31 17.6211 28.6011 15.2222 25.642 15.2222C22.6828 15.2222 20.2839 17.6211 20.2839 20.5803C20.2839 23.5394 22.6828 25.9383 25.642 25.9383Z" fill="#627EEA"/>
<path d="M25.6775 16.663L25.6205 16.853V22.079L25.6775 22.136L28.1099 20.6918L25.6775 16.663Z" fill="#C0CCF7"/>
<path d="M25.6774 16.663L23.245 20.6918L25.6774 22.136V16.663Z" fill="white"/>
<path d="M25.6774 22.5922L25.6394 22.6302V24.4925L25.6774 24.5875L28.1099 21.1668L25.6774 22.5922Z" fill="#C0CCF7"/>
<path d="M25.6774 24.5875V22.5922L23.245 21.1668L25.6774 24.5875Z" fill="white"/>
<path d="M25.6776 22.1361L28.1099 20.6918L25.6775 19.5896V22.1361H25.6776Z" fill="#8198EE"/>
<path d="M23.245 20.6918L25.6774 22.1361V19.5896L23.245 20.6918Z" fill="#C0CCF7"/>
</g>
<defs>
<clipPath id="clip0">
<rect width="10.716" height="10.716" fill="white" transform="translate(20.2839 15.2222)"/>
</clipPath>
</defs>
</svg>
