<svg width="32" height="32" viewBox="0 0 32 32" fill="none" xmlns="http://www.w3.org/2000/svg">
<path d="M16 32C24.8366 32 32 24.8366 32 16C32 7.16344 24.8366 0 16 0C7.16344 0 0 7.16344 0 16C0 24.8366 7.16344 32 16 32Z" fill="#22996E"/>
<path d="M16 23.1279H7.24367C6.05772 23.1279 5.34081 21.8166 5.98093 20.8183L10.9627 13.0484C11.3305 12.4748 11.965 12.1279 12.6464 12.1279H19.3536C20.035 12.1279 20.6695 12.4748 21.0373 13.0484L26.0191 20.8183C26.6592 21.8166 25.9423 23.1279 24.7564 23.1279H16Z" fill="white"/>
<path d="M16.8948 5.25514L18.9871 8.45229C19.4223 9.11737 18.9452 9.99989 18.1504 9.99989H13.8875C13.085 9.99989 12.6094 9.10217 13.0601 8.4382L15.2307 5.24105C15.6315 4.65063 16.504 4.65802 16.8948 5.25514Z" fill="white"/>
</svg>
