<svg xmlns="http://www.w3.org/2000/svg" xmlns:xlink="http://www.w3.org/1999/xlink" viewBox="0 0 400 400" xmlns:v="https://vecta.io/nano"><defs><circle id="A" cx="199" cy="199" r="174.8"/></defs><clipPath id="B"><use xlink:href="#A"/></clipPath><linearGradient id="C" gradientUnits="userSpaceOnUse" x1="-1.323" y1="398.844" x2="397.661" y2="5.325"><stop offset=".001" stop-color="#4ce096"/><stop offset=".315" stop-color="#5fddc2"/><stop offset=".602" stop-color="#6cdae3"/><stop offset=".84" stop-color="#75d9f8"/><stop offset="1" stop-color="#78d8ff"/></linearGradient><path d="M3.9 3.9h392.4v392.4H3.9z" clip-path="url(#B)" fill="url(#C)"/><g clip-path="url(#B)"><linearGradient id="D" gradientUnits="userSpaceOnUse" x1="199" y1="373.842" x2="199" y2="24.158"><stop offset=".001" stop-color="#4ce096"/><stop offset=".315" stop-color="#5fddc2"/><stop offset=".602" stop-color="#6cdae3"/><stop offset=".84" stop-color="#75d9f8"/><stop offset="1" stop-color="#78d8ff"/></linearGradient><path d="M199 44.2c41.4 0 80.2 16.1 109.5 45.4 29.2 29.2 45.4 68.1 45.4 109.5s-16.1 80.2-45.4 109.5C279.3 337.8 240.4 354 199 354s-80.2-16.1-109.5-45.4C60.3 279.2 44.2 240.4 44.2 199s16.1-80.2 45.4-109.5c29.2-29.2 68-45.3 109.4-45.3m0-20c-96.6 0-174.8 78.3-174.8 174.8S102.4 373.8 199 373.8 373.8 295.6 373.8 199 295.6 24.2 199 24.2h0z" fill="url(#D)"/></g><g fill="#fff"><path d="M232.6 125h-14l-12.3 60c.1 0 .2.1.2.1 1.8 1 3.4 2.3 4.7 3.9l.9 1.2a11.74 11.74 0 0 1 1.5 2.7c1 2.4 1.5 5 1.2 7.7-.1 1-.3 1.9-.5 2.9v.2c-.3.9-.6 1.7-1 2.5 0 .1-.1.2-.1.3-.4.8-.9 1.5-1.4 2.2-.1.1-.1.2-.2.3-.5.7-1.1 1.3-1.7 1.9l-.3.3a9.51 9.51 0 0 1-2 1.5c-.1.1-.2.1-.3.2-.7.4-1.5.8-2.3 1.1-.1 0-.2.1-.3.1-.8.3-1.6.6-2.5.7-.1 0-.2 0-.3.1l-1.7.2-9.1 44.1h24L240.6 135c1-5.2-2.9-10-8-10zm-42.4 87.4c-.9-.6-1.7-1.2-2.4-1.9l-1-1.1c-.7-.8-1.2-1.6-1.7-2.5l-.7-1.4c-.6-1.4-1-2.9-1.2-4.5-.1-.5-.1-1.1-.1-1.6s0-1.1.1-1.6c.1-1 .3-1.9.5-2.9v-.2c.3-.9.6-1.7 1-2.5 0-.1.1-.2.1-.3.4-.8.9-1.5 1.4-2.2.1-.1.1-.2.2-.3.5-.7 1.1-1.3 1.7-1.9l.3-.3a9.51 9.51 0 0 1 2-1.5c.1-.1.2-.1.3-.2.7-.4 1.5-.8 2.3-1.1.1 0 .2-.1.4-.1.8-.3 1.6-.6 2.5-.7.1 0 .2 0 .3-.1.6-.1 1.2-.1 1.8-.2l9.1-44.4h-24l-25.5 124.2c-1 5 2.8 9.8 8 9.8h14l12.3-59.6c-.1-.1-.2-.1-.3-.1-.6-.2-1-.5-1.4-.8zm-5.4-7.1a15.89 15.89 0 0 1-1.2-4.4c.2 1.5.6 3 1.2 4.4zm-1.1-4.4c-.1-.5-.1-1-.1-1.5 0 .5 0 1 .1 1.5zm.4-5.9v-.2c.1.1.1.1 0 .2zm1-2.6c0-.1.1-.2.1-.3 0 .1 0 .2-.1.3zm1.5-2.4c.1-.1.1-.2.2-.3-.1.1-.1.2-.2.3zm24.8 18.3c-.1.1-.1.2-.2.3.1-.1.1-.2.2-.3z"/><path d="M202 214.3h-.3.3zm7.5-3.9l-.3.3.3-.3zm-21-22.5l.3-.3-.3.3zm16.3 25.6c-.1 0-.2.1-.3.1.1-.1.2-.1.3-.1zm-17.7-4.5l-1.7-2.4 1.7 2.4zm3.4 3l-2.3-1.9c.7.7 1.4 1.4 2.3 1.9zm8.5 2.6h0c-.4 0-.9 0-1.4-.1.5.1 1 .1 1.4.1zm-4.5-.7a13.9 13.9 0 0 1-2.8-1.2c.9.6 1.9.9 2.8 1.2zm7.4-29.9c1 .2 2 .5 2.9.9-.8-.4-1.8-.7-2.9-.9zm5.4 28.1c-.1.1-.2.1-.3.2.1 0 .2-.1.3-.2zm6.6-8.8v.2c-.1-.1-.1-.1 0-.2zm-2.2-12.9c.6.8 1 1.7 1.4 2.6-.3-.9-.8-1.8-1.4-2.6zm-12.7-6.7s-.1 0 0 0c.4 0 .9 0 1.4.1-.5-.1-1-.1-1.4-.1zm11.9 5.5c-1.3-1.5-2.8-2.8-4.6-3.7 1.7 1 3.3 2.2 4.6 3.7zm-17.7-4.4c.1 0 .2-.1.3-.1-.1.1-.2.1-.3.1zm2.8-.8h.3-.3zm16.9 21.9c0 .1-.1.2-.1.3 0-.1 0-.2.1-.3zm-22.2-19.8c.1-.1.2-.1.3-.2-.1.1-.2.2-.3.2z"/><path d="M231 172.4c-7.1-8.6-17.2-13.8-28.3-14.8-1.2-.1-2.5-.2-3.8-.2-21.7 0-39.6 16.3-41.5 38-1 11.1 2.4 21.9 9.5 30.5s17.2 13.8 28.3 14.8c1.2.1 2.5.2 3.8.2 21.7 0 39.6-16.3 41.5-38 1.1-11.1-2.3-21.9-9.5-30.5zm-16.6 28.1c-.1 1-.3 1.9-.5 2.8v.2c-.2.9-.6 1.7-1 2.4 0 .1-.1.2-.1.3-.4.7-.8 1.5-1.3 2.1-.1.1-.1.2-.2.3-.5.6-1.1 1.2-1.7 1.8l-.3.3c-.6.5-1.3 1-1.9 1.5-.1.1-.2.1-.3.2-.7.4-1.4.8-2.2 1.1-.1 0-.2.1-.3.1-.8.3-1.6.5-2.4.7h-.3c-.9.2-1.7.2-2.6.3h-.1c-.5 0-.9 0-1.4-.1a15.47 15.47 0 0 1-3.1-.6 13.9 13.9 0 0 1-2.8-1.2 9.13 9.13 0 0 1-1.3-.8c-.8-.6-1.6-1.2-2.3-1.9-.4-.3-.7-.7-1-1.1-.6-.8-1.2-1.6-1.7-2.4-.2-.4-.5-.9-.7-1.3a15.89 15.89 0 0 1-1.2-4.4c-.1-.5-.1-1-.1-1.5s0-1 .1-1.6c.1-1 .3-1.9.5-2.8v-.2c.2-.9.6-1.7 1-2.4 0-.1.1-.2.1-.3.4-.7.8-1.5 1.3-2.1.1-.1.1-.2.2-.3.5-.6 1.1-1.2 1.7-1.8l.3-.3c.6-.5 1.3-1 1.9-1.5.1-.1.2-.1.3-.2.7-.4 1.4-.8 2.2-1.1.1 0 .2-.1.3-.1.8-.3 1.6-.5 2.4-.7h.3c.9-.2 1.7-.2 2.6-.3h.1c.5 0 .9 0 1.4.1.5 0 1.1.1 1.6.2 1 .2 2 .5 2.9.9.5.2.9.4 1.4.6 1.8.9 3.3 2.2 4.6 3.7l.9 1.2c.6.8 1 1.7 1.4 2.6 1.1 2.4 1.5 5 1.3 7.6zm-1.7 5.7c-.4.7-.8 1.5-1.3 2.1.5-.6.9-1.3 1.3-2.1z"/><path d="M209.2 210.7l-1.9 1.5 1.9-1.5zm2-2.1c-.5.6-1.1 1.2-1.7 1.8.6-.5 1.2-1.1 1.7-1.8zm3.2-8.1c-.1 1-.3 1.9-.5 2.8l.5-2.8zm-.6 3c-.2.8-.6 1.7-1 2.4.4-.7.8-1.6 1-2.4zm-20.2-18.8c.8-.3 1.6-.5 2.4-.7-.9.2-1.7.4-2.4.7zm-2.6 1.2c.7-.4 1.4-.8 2.2-1.1-.8.3-1.5.7-2.2 1.1zm-4.2 3.8c.5-.6 1.1-1.2 1.7-1.8-.6.5-1.2 1.1-1.7 1.8zm2-2.1l1.9-1.5-1.9 1.5zm7.5-3.6c.9-.2 1.7-.2 2.6-.3a10.9 10.9 0 0 0-2.6.3zm-12.2 11l-.5 2.8c0 .5-.1 1.1-.1 1.6 0-.5 0-1 .1-1.6.1-1 .3-1.9.5-2.8zm22.9 17.4c-.7.4-1.4.8-2.2 1.1l2.2-1.1zm-5.3 1.9c-.9.2-1.7.2-2.6.3a10.9 10.9 0 0 0 2.6-.3zm2.7-.7c-.8.3-1.6.5-2.4.7.9-.2 1.7-.4 2.4-.7zm-20.2-18.8c.2-.9.6-1.7 1-2.4-.4.7-.8 1.6-1 2.4zm1.1-2.7c.4-.7.8-1.5 1.3-2.1-.5.6-.9 1.3-1.3 2.1z"/></g></svg>