<svg xmlns="http://www.w3.org/2000/svg" viewBox="0 0 256 256"><path fill="#2a373b" d="M107.9 119.5c-1 0-2 .3-2.9-.4a4.7 4.7 0 0 1 2.9.4zm4 .4c-.7 0-1.6.3-2.3-.3a3.5 3.5 0 0 1 2.4.3z"/><path fill="#283036" d="M28 48a60.3 60.3 0 0 1 6.7-7.9A126.9 126.9 0 0 1 97.4 3.6a77.7 77.7 0 0 1 11.9-2.2c.4 1.3-.7 1.7-1.4 2.1l-13.5 7.8L80 19.7a2.6 2.6 0 0 0-1.4 1.2 2 2 0 0 1-1 .7 111.8 111.8 0 0 0-15.7 9 5 5 0 0 1-2 1 2.7 2.7 0 0 0-1.6.5l-27 15.6a6.4 6.4 0 0 1-2 1c-.5 0-1.2.3-1.3-.7z"/><path fill="#399584" d="M164.1 250.7a108.2 108.2 0 0 1-22 4.4c-.4-1.1.6-1.6 1.3-2l15.8-9c2.6-1.6 5.5-2.9 7.8-5 2.3-1.4 4.8-2 7.3-3a117.4 117.4 0 0 0 30.4-19.1c1.5-1.3 2.7-2.8 4.4-3.7a7.8 7.8 0 0 0 2.8-1.1c6.4-3.8 12.8-7.5 19.3-11.1.4-.3 1.2-1.4 1.7 0A114.7 114.7 0 0 1 218 219l-1.2 1.1c-11.1 6.2-22 12.7-33.1 19l-16.7 9.6a13 13 0 0 0-3 2.1z"/><path fill="#293237" d="M28 48c.8.9 1.5.2 2.1-.1l13.7-8 14.7-8.4c.5-.2 1-.6 1.4 0a66.1 66.1 0 0 1-6.4 5.2 134 134 0 0 0-15.8 15.9 7.5 7.5 0 0 1-2.1 2.1c-3 .9-5.5 2.8-8.2 4.3l-8 4.5c-.5.3-1.4 1.2-1.9-.3a81.6 81.6 0 0 1 6.9-10.6A33.1 33.1 0 0 1 28 48zm50.5-27.3c.2-1.5 1.6-1.5 2.5-2 4-2.5 8.1-4.8 12.2-7.2l14.2-8.1c.8-.5 1.7-.9 1.9-2A82.5 82.5 0 0 1 121.8.1h5.8c.1 1-.9 1.4-1.6 1.8-4.1 2.5-8.3 5-12.5 7.3a17.8 17.8 0 0 0-3.4 2.4c-3.4 1-6.8 1.4-10.2 2.2A110.6 110.6 0 0 0 81 20.1c-.8.3-1.5.9-2.5.6z"/><path fill="#389181" d="M232.9 201.2c-.2-.4-.4-.4-.8-.2l-16 9.2-4.8 2.8a3.4 3.4 0 0 1-2.1.6c-.3-.7.2-1 .6-1.4a116.3 116.3 0 0 0 14-16.2 2.8 2.8 0 0 1 1.2-1c4.2-2 8-4.5 12-6.8l2.7-1.5c.7-.3 1.3-.8 2-.2a92.6 92.6 0 0 1-8.8 14.7z"/><path fill="#3a9987" d="M164.1 250.7c0-1 .7-1.2 1.3-1.5l15-8.7 32.3-18.7a11 11 0 0 1 4.2-1.8l-5 4.6a108.6 108.6 0 0 1-16.3 12 121.5 121.5 0 0 1-31.5 14.1z"/><path fill="#293439" d="M17.5 63.2c.7.9 1.3.2 1.8 0 4.2-2.5 8.4-5 12.7-7.3 1-.6 2-1.7 3.5-1.4-.6 1.9-2 3.2-3.2 4.7C30 62.6 28 66 26 69.5c-.4.7-.7 1.5-1.5 1.8-1.8 0-3 1.3-4.5 2l-7.5 4.4c-.7.4-1.4 1.1-2.4.5a91 91 0 0 1 7.5-15zm92.5-52c2.2-2.2 5.1-3.3 7.7-4.9l8.5-4.9a3.5 3.5 0 0 0 1.4-1.4 74 74 0 0 1 10.8.4c.7.3 1.4 0 2.1.3h1.3c.5.3 1.2 0 1.7.3.2 1-.6 1.2-1.2 1.6-2.7 1.7-5.4 3.2-8.2 4.8-1.6.8-3 2-4.6 2.8-2.5.3-5.1-.2-7.6.3a16 16 0 0 1-3 .2 4.9 4.9 0 0 0-2 .2l-5 .6a2.2 2.2 0 0 1-2-.3z"/><path fill="#2c4345" d="M188.5 15.3a42.5 42.5 0 0 1 7.4 4.1l4.8 3.3c.2.6-.3.8-.7 1-2.8 1.7-5.5 3.5-8.5 5a2.8 2.8 0 0 1-1.6-.6c-3.2-2-6.4-4-9.8-5.6a1.9 1.9 0 0 1-.9-.8c-.2-.8.4-1.2 1-1.5l8.3-4.9z"/><path fill="#389282" d="M167.2 239.3c-1.3 1.9-3.3 2.5-5 3.5l-18.7 10.7a2.3 2.3 0 0 0-1.4 1.7h-1.5c-.7.3-1.5 0-2.2.3a36.4 36.4 0 0 1-7.8.3c-.4-1 .5-1.2 1.1-1.5l13.4-7.8a21.2 21.2 0 0 0 4-2.7c5.5-1.4 11.2-2.7 16.6-4.5.5-.2 1-.4 1.5 0z"/><path fill="#2a373b" d="M10 78.2c2-.4 3.6-1.8 5.3-2.7 2.5-1.3 5-2.8 7.4-4.2.5-.3 1-.9 1.6-.2a2 2 0 0 1-.3 2 94.3 94.3 0 0 0-4.6 9.5c-.2.6-.3 1.2-1 1.5a7.2 7.2 0 0 0-3.4 1.3c-2.3 1.5-4.8 2.8-7.1 4.2-.7.3-1.3 1-2.2.5A71.5 71.5 0 0 1 10 78z"/><path fill="#388d7e" d="M119.3 255.6a63 63 0 0 1-12-1.4 3.3 3.3 0 0 1 1.5-1.4 345.2 345.2 0 0 1 9.3-5.4l3.1-2c4.6.4 9.2-.4 13.8 0 1.3 1 0 1.4-.5 1.8-1.8 1.2-3.6 2.2-5.5 3.3-2.7 1.5-5.5 3-8.1 4.7-.5.3-1 .7-1.6.4z"/><path fill="#2a373b" d="M130 9.8c1.5-2 4-2.7 6-4l6.5-3.8a2.6 2.6 0 0 0 1-1 50.3 50.3 0 0 1 11.3 2 5 5 0 0 0 1.2.1c.4 1.2-.7 1.3-1.2 1.7l-6.4 3.7c-1.5.8-3 1.5-4 3-3.4-.1-6.7-.8-10-1a9 9 0 0 0-2.7-.2c-.7 0-1.3 0-1.8-.5z"/><path fill="#2a3c3f" d="M165.1 5.5a79.5 79.5 0 0 1 12.2 4.4c.5 1-.4 1.4-1 1.7-3 1.9-6 3.5-9 5.3-2.3 0-4.4-1.2-6.5-1.8-2.1-.6-4.3-.7-6.2-1.9-.3-1.1.6-1.5 1.3-1.9 2.4-1.3 4.7-2.8 7.2-4.1a5.7 5.7 0 0 0 2-1.7zM1 112.1a71.5 71.5 0 0 1 2.3-13.3c1.4 0 2.3-.9 3.4-1.4 2.2-1.2 4.3-2.6 6.5-3.7.6-.4 1.5-1 1.9.3-1 4.2-1.7 8.5-3 12.6L2.6 112c-.6.3-1.1.7-1.7.2z"/><path fill="#2b4042" d="M167.5 16.6c2-1.9 4.6-2.7 6.8-4.3 1-.7 2.7-.8 3-2.4a61 61 0 0 1 11.2 5.4c-1.4 1.8-3.6 2.4-5.3 3.6a32.2 32.2 0 0 1-3.1 1.7 1.2 1.2 0 0 0-.7 1c-.6.5-1.1.2-1.6 0a95 95 0 0 0-9-3.9c-.5-.2-1.3-.2-1.3-1z"/><path fill="#34736a" d="M54.8 233a76.6 76.6 0 0 1-10.2-7.9c3-2 6-3.6 9.1-5.3a1.8 1.8 0 0 1 1.4.5c2.5 2 5 3.8 7.7 5.6.4.3 1 .6 1 1.2a1.5 1.5 0 0 1-.8 1.2c-2.8 1.5-5.4 3.3-8.2 4.7z"/><path fill="#388c7d" d="M249.3 168.6a73.8 73.8 0 0 1-4 10.5c-4.4 2.7-8.9 5.2-13.4 7.8a2 2 0 0 1-1.9.3c-.2-.5 0-1 .3-1.4a88.6 88.6 0 0 0 4.8-9.6 2 2 0 0 1 1-1.1c3.4-1.3 6.3-3.5 9.5-5.2l2.2-1.2c.5-.3 1-.6 1.5-.1z"/><path fill="#2b4042" d="M1 112c2-.3 3.4-1.8 5.1-2.6l4.1-2.3a2.6 2.6 0 0 1 1.6-.5 3.5 3.5 0 0 1 .1 2.2c-.4 3-.8 6.2-1 9.3a1.8 1.8 0 0 1-.3 1c-3.1.9-5.6 2.9-8.4 4.3-.7.4-1.3 1.1-2.2.5v-.4c.4-1.2 0-2.5.3-3.8a35.7 35.7 0 0 1 .7-7.6z"/><path fill="#389081" d="m119.3 255.6 6.2-3.6 8.7-5c.5-.3 1-.5 1.2-1.2.8-.8 1.8-.7 2.8-.8 3-.2 5.9-.7 8.8-1.1.6-.1 1.3-.4 1.9.2-.6 1.5-2 1.9-3.2 2.6l-14 8c-.4.2-1 .5-1 1.1a59 59 0 0 1-11.4-.2z"/><path fill="#34736a" d="M253.8 105.2a53.4 53.4 0 0 1 1.4 9.8c.3 2.5.3 2.5-1.8 3.7l-5.5 3.2a2.5 2.5 0 0 0-1.5 2.4c0 .7.4 1.6-.6 2a1.3 1.3 0 0 1-.6-1.2c.1-4.7-.5-9.3-.8-14 0-.6.6-.7 1-1 2.9-1.5 5.7-3.2 8.4-4.9z"/><path fill="#2d4949" d="M191.5 28.5c2.3-1.9 5-3 7.4-4.6l1.8-1.2a63.6 63.6 0 0 1 8.8 6.7c.2 1.2-1 1.5-1.7 2l-6.8 4a.5.5 0 0 1-.3 0c-3.2-2-6-4.3-9.1-6.5-.1 0-.1-.3 0-.4z"/><path fill="#2e504f" d="M216.2 35.3a76.3 76.3 0 0 1 7.8 8.1c0 1.2-1 1.4-1.7 1.9-2 1.4-4.4 2.3-6.3 3.9-.6.1-1-.3-1.4-.6l-6.4-6.5a1.6 1.6 0 0 1-.6-1.1c.3-1 1.1-1.2 1.8-1.6 2.3-1.4 4.7-2.5 6.8-4zM6.8 169.3a61.6 61.6 0 0 1-3-10.5c.2-.9 1-1.1 1.7-1.5l5.7-3.3c.6-.3 1.3-.7 2 0 1 3.5 2.2 6.8 2.6 10.4a50.8 50.8 0 0 1-8.4 4.9.7.7 0 0 1-.6 0z"/><path fill="#336e66" d="m253.8 105.2-.1.5c-2.9 1.8-5.7 3.8-9 5a1.7 1.7 0 0 1-.7-1.3c-.4-2.7-1-5.3-1.5-8A2.4 2.4 0 0 1 244 99l7.6-4.3a60.6 60.6 0 0 1 2.3 10.5z"/><path fill="#326962" d="M251.5 94.7c-.5 1.4-1.9 1.4-2.9 2.1a43.7 43.7 0 0 1-4.8 2.8 1.5 1.5 0 0 0-.8 1.6.5.5 0 0 1-.7-.4c-.8-3.4-2-6.7-2.7-10.2a1.5 1.5 0 0 1 .6-1.1c2.7-1.6 5.3-3.5 8.2-4.6a53.8 53.8 0 0 1 3 9.8z"/><path fill="#336e66" d="m53.9 220-8.3 5a3 3 0 0 1-1 .1 83.8 83.8 0 0 1-7.4-6.8c0-.1 0-.3.2-.4 2.9-1.8 5.6-3.8 8.9-5 2 1.1 3.4 3 5.2 4.4.9.8 2.2 1.2 2.4 2.7z"/><path fill="#34786d" d="M54.8 233c1.3-1.5 3.1-2 4.7-3.2 1.3-1 3.1-1.2 4.1-2.7 2.6.7 4.8 2.3 7.1 3.6.9.5 2.1.6 2.4 1.8-2.3 2-5 3.2-7.6 4.8-.7.4-1.3 1.3-2.4 1a59.2 59.2 0 0 1-8.3-5.3z"/><path fill="#2a393d" d="M14.9 93.8c-.6-.6-1 0-1.5.2L4.8 99c-.4.2-1 1.3-1.5 0A46 46 0 0 1 5.7 90c3.1-1.3 5.8-3.2 8.7-4.8l2.7-1.4c.4-.2.8-.4 1.1 0a1 1 0 0 1 .1 1.2l-2.6 7.8c-.1.4-.2 1-.8.9zM165 5.5c.5.9-.3 1-.8 1.3l-8 4.8c-.6.3-1.3.6-1.7 1.3a1.4 1.4 0 0 1-1.4.3l-7.2-1.4a1.6 1.6 0 0 1-1.2-.6c-.5-.8 0-1.2.7-1.5l9-5.3c.6-.3 1.3-.5 1.5-1.3 2.7.3 5.2 1.4 7.7 2.1a11.2 11.2 0 0 1 1.4.3z"/><path fill="#31655f" d="M248.4 84.9a73.9 73.9 0 0 1-6.8 4.2c-.7.3-1.4.6-1.7 1.3-.5 0-.7-.3-.8-.7l-3-8a1.8 1.8 0 0 1-.1-1c.8-1.3 2.3-1.7 3.5-2.4a28.5 28.5 0 0 1 5.2-2.8 55.7 55.7 0 0 1 3.7 9.4z"/><path fill="#326962" d="M46.3 213.2c-3.2 1.4-6 3.4-9 5.1a89.8 89.8 0 0 1-6.9-7.4c1-1.4 2.7-1.8 4-2.7a33.6 33.6 0 0 1 4.8-2.6c1.2.5 1.8 1.7 2.8 2.6 1.2 1 2.4 2.3 3.5 3.5.4.4 1 .8.8 1.5z"/><path fill="#368275" d="M255 142.2a75.8 75.8 0 0 1-1.6 11.1c-3.1 1.4-6 3.3-9 5-.8.4-1.6 1.2-2.6.4-.4-1 0-1.8.3-2.6.4-2.2.9-4.5 1.6-6.7a2.8 2.8 0 0 1 1.3-1.2c2.6-1.4 5.1-3.1 7.8-4.4.9-.4 1.4-1.3 2.3-1.6z"/><path fill="#31655f" d="M39.2 205.8a95.3 95.3 0 0 1-8.8 5 65.5 65.5 0 0 1-6-7.7c.2-.7.8-1 1.4-1.3l5.5-3.2a2 2 0 0 1 1.8-.5c2 1.5 3.3 3.8 5 5.7.4.5 1.3 1 1.1 2z"/><path fill="#34786d" d="M246 126.3c-.6-3 .7-4.8 3.4-5.9 1.3-.5 2.4-1.5 3.7-2 1.6-.7 2.4-1.6 2-3.4a39.4 39.4 0 0 1 .7 6.4v5.5a3.7 3.7 0 0 1-1.5 1.3c-2.3 1.2-4.6 2.7-6.9 4a2.2 2.2 0 0 0-1 1.7c-.1.5-.2 1.3-1 .5a17.1 17.1 0 0 1 .6-8.1z"/><path fill="#37887a" d="M249.3 168.6c-2.7.9-5 2.7-7.5 4-1.9 1-3.4 2.5-5.7 2.7a1.2 1.2 0 0 1 0-1.3c1-2.4 2-4.8 2.8-7.3a1.6 1.6 0 0 1 .5-.6c3.4-1.6 6.5-3.6 9.8-5.4.7-.5 1.5-1.3 2.6-.6a50.3 50.3 0 0 1-2.5 8.5z"/><path fill="#2c4345" d="M0 123.9c2-.4 3.4-1.8 5.2-2.7l3.4-2c.5-.2 1-.7 1.5 0a3.4 3.4 0 0 1 .5 2.9c-.4 3 .2 6.1 0 9.2a8.4 8.4 0 0 1-.1 2.3c-.7 1-1 .3-1-.3a16.5 16.5 0 0 1-.1-3.3c0-1.1-.4-1.3-1.4-.8-2 1.3-4.1 2.6-6.3 3.6-.6.3-1.4.8-1.7-.4z"/><path fill="#368275" d="M86.6 249a51.2 51.2 0 0 1-8.8-3.3c0-.7.6-1 1-1.4 3-1.7 6-3.3 8.8-5.2a1.6 1.6 0 0 1 .8-.2 46 46 0 0 1 8.8 2.8c.1 1-.6 1.3-1.2 1.7l-6.4 3.7a24.4 24.4 0 0 0-3 2z"/><path fill="#2d4c4b" d="M12.8 154c-1.9.1-3.1 1.6-4.7 2.3-1.5.7-3 1.6-4.4 2.5a55.8 55.8 0 0 1-2-9.5c2.6-1.3 5.1-2.8 7.7-4.2.6-.4 1.2-1.2 2-.3l1.5 7.3c.1.6.4 1.3 0 2z"/><path fill="#2c4647" d="M0 132.4c.5.7 1 .3 1.4 0l6.9-3.9c1.1-.6 1.5-.4 1.5 1 0 1.5-.4 3 .3 4.6.8 1 .5 2 .3 3-1.1 1.5-3 2-4.4 3a30.8 30.8 0 0 1-3.4 1.9c-.6.3-1.3.9-1.9-.2v-1.2c-.4-.8 0-1.7-.3-2.5a27.8 27.8 0 0 1-.4-5.7z"/><path fill="#2d4c4b" d="M216.2 35.3c-.7 1.8-2.6 1.9-4 2.9-1.3 1-3 1.6-4.4 2.8-.8.2-1.1-.5-1.6-.8l-4.3-3.7c-.4-.3-1-.5-.9-1.3 1.5-1.8 3.9-2.4 5.8-3.7 1-.6 2.1-1 2.7-2.1a23.3 23.3 0 0 1 4.6 4.1 6.8 6.8 0 0 0 2.1 1.8z"/><path fill="#388e7e" d="M230.1 187.2c3.9-1.7 7.3-4 11-6 1.4-.8 2.5-2 4.2-2.1a55.6 55.6 0 0 1-3.5 7.5c-2.6.4-4.6 2.1-6.8 3.3l-8.5 4.8a2.8 2.8 0 0 1-1.5.6c-.3-.5 0-.9.2-1.3l4.1-6.3c.2-.3.4-.6.8-.5z"/><path fill="#2f5552" d="M215.9 49.1c.6-1.6 2.4-1.7 3.6-2.6 1.5-1 3.3-1.6 4.5-3a51 51 0 0 1 5.4 6.6c.4.6 0 1-.5 1.3a55.6 55.6 0 0 1-7.5 4.3 1.2 1.2 0 0 1-1-.5c-1.5-1.6-2.9-3.3-4.2-5a1 1 0 0 1-.3-1zM6.8 169.2l7-4a14.2 14.2 0 0 1 1.7-.7c.2 0 .3 0 .3.2a23.9 23.9 0 0 1 3 8c-2.5 1.6-5.1 3-7.7 4.4a1.2 1.2 0 0 1-1.4 0 48.6 48.6 0 0 1-3-7.9z"/><path fill="#367f73" d="M88.4 239.3c-3.5 2.3-7.3 3.8-10.6 6.4A44 44 0 0 1 70 242c1.4-1.6 3.5-2.3 5.2-3.4l4.7-2.9a38.3 38.3 0 0 1 8.3 3.1l.2.5z"/><path fill="#378a7b" d="M120.8 245.8c-.2 1.2-1.3 1.3-2 1.7l-11.6 6.7a31.8 31.8 0 0 1-7-1.3c-.3-.7.2-1 .6-1.3 3.9-2.4 7.8-4.8 11.9-7a57.1 57.1 0 0 1 6.6.6 2 2 0 0 1 1.5.6z"/><path fill="#367f73" d="M255.1 142.2c-.9 2-3 2.2-4.6 3.3-2 1.4-4.3 2.5-6.5 3.8a.8.8 0 0 1-.3-.8 57.7 57.7 0 0 1 1.3-7.8c2.3-1.6 4.8-3 7.3-4.3a9 9 0 0 0 3.5-3 51.7 51.7 0 0 1-.7 8.8z"/><path fill="#357b70" d="M255.8 133.4a3.3 3.3 0 0 1-2.2 2.7l-7 4a2.2 2.2 0 0 1-1.2.4c-1-2-.5-3.9.3-5.8 0-2.1 1.4-3 3-3.9 2.5-1.2 4.8-2.6 7.2-3.9a45 45 0 0 1-.1 6.5zm-176 102.5c-.8 1.4-2.4 1.8-3.7 2.6L70 242a39 39 0 0 1-6.9-3.7c3.2-2 6.6-4 10-5.8a1 1 0 0 1 1 .1l4.6 2.2c.5.2 1.1.3 1.2 1z"/><path fill="#31615c" d="M33.1 198.4c-2 .3-3.3 1.8-5 2.5-1.3.6-2.5 1.5-3.8 2.2a50.9 50.9 0 0 1-4.4-6.4 1 1 0 0 1 .4-.7 92.3 92.3 0 0 1 8-4.6 1.5 1.5 0 0 1 1 .8l3.4 4.8c.3.4.7.8.4 1.4z"/><path fill="#2f5a56" d="M16 189.9a46 46 0 0 1-3.9-7.4c2.6-.7 4.6-2.4 7-3.5.7-.4 1.3-1 2.3-.7l3.3 6a1.4 1.4 0 0 1 0 1.2c-2.3 1.7-4.9 3-7.4 4.4a1.2 1.2 0 0 1-1.4 0z"/><path fill="#31615c" d="M244.7 75.5c-2.6 2-5.7 3.4-8.5 5h-.5c-1.1-2.3-2.6-4.4-3-7 1.8-1.6 4-2.5 6-3.8a4.7 4.7 0 0 1 2.6-1 41.3 41.3 0 0 1 3.4 6.8z"/><path fill="#2f5a56" d="M233.7 55.8a44.3 44.3 0 0 1 3.9 6.1c.1.9-.6 1-1 1.4l-7.2 4.2h-.1a16.6 16.6 0 0 1-4.4-7 3.3 3.3 0 0 1 1.5-1.2l5.4-3.1c.6-.4 1.1-.8 1.9-.4z"/><path fill="#368578" d="M251.8 160.1c-2.6.5-4.4 2.4-6.7 3.4-1.8.9-3.3 2.4-5.5 2.7a.8.8 0 0 1-.2-1l1.9-5.8a1 1 0 0 1 .6-.6c2.6-.5 4.4-2.4 6.7-3.4 1.6-.7 2.8-2.3 4.8-2a39 39 0 0 1-1.6 6.7z"/><path fill="#305e59" d="M16 189.9c2.4-.6 4.2-2.3 6.4-3.4a8.1 8.1 0 0 1 2.3-1c1.5 1 3.8 4.8 3.7 6l-8.5 5.2a49.9 49.9 0 0 1-4-6.8zM229.3 67.4c1.4-1.7 3.4-2.3 5.1-3.4 1-.7 2.3-1 3-2a42.9 42.9 0 0 1 3.8 6.6c-2.8 1.7-5.6 3.5-8.5 4.9a.7.7 0 0 1-.8-.3 50.7 50.7 0 0 1-2.7-5.2.6.6 0 0 1 .1-.6z"/><path fill="#37877a" d="M112.4 245c-3.2 2.3-6.6 4-10 6a5.5 5.5 0 0 0-2.2 1.9 31.9 31.9 0 0 1-6.8-1.7c-.5-1 .3-1.3 1-1.7l6.2-3.6c1.3-.7 2.6-1.7 3.9-2.5 2.5 0 5 .7 7.4 1a.5.5 0 0 1 .5.7z"/><path fill="#368577" d="M104.2 243.7c-1.2 2-3.5 2.4-5.2 3.6-1.5 1-3.2 1.9-4.8 2.7-.4.3-.8.6-.8 1.2a34.6 34.6 0 0 1-6.8-2.1c.5-1.7 2.2-1.8 3.3-2.6 2.4-1.6 5-2.7 7.2-4.5a1.3 1.3 0 0 1 1.3-.2l4.9 1.1c.4.1.9.2 1 .8z"/><path fill="#2d4949" d="M.7 141.8c1 .6 1.7-.2 2.4-.6 2.4-1.2 4.4-3 7-3.8a11.6 11.6 0 0 1 1 7.1l-6.8 4c-.8.3-1.5 1.2-2.6.8a44 44 0 0 1-1-7.5z"/><path fill="#2f5754" d="M233.7 55.8c-3.1 1.3-5.8 3.2-8.7 4.8a7.7 7.7 0 0 1-3.7-5l7-4.2c.6-.3 1.2-.6 1.2-1.3a41.6 41.6 0 0 1 4.2 5.7zM21.3 178.4a54.9 54.9 0 0 0-7 3.8c-.7.4-1.4.8-2.2.2a28.6 28.6 0 0 1-2.4-5.3c2.3-.5 4-2 6-3.1a11.5 11.5 0 0 1 2.9-1.4 9.7 9.7 0 0 1 2.7 5.8z"/><path fill="#2c4345" d="M.3 119.7c0 1.3.3 2.6-.3 3.8a10.6 10.6 0 0 1 .3-3.8z"/><path fill="#2d4949" d="M.4 138.1c.5.8.2 1.7.2 2.5a4.7 4.7 0 0 1-.2-2.5z"/><path fill="#399584" d="M138.4 255.5c.7-.5 1.4-.2 2.1-.2a3.4 3.4 0 0 1-2 .2z"/><path fill="#192123" d="m21.2 178.4-2.6-5.8-3-8-2.8-10.6c-.5-3.1-1.6-6.2-1.7-9.5l-1-7V134c0-5-.3-10 0-15 .6-1.7.4-3.6.7-5.4l1-7c1-4.4 1.8-8.7 3-13l3.4-9.7c1.3-2.3 2.2-4.8 3.3-7.2l2.8-5.7L31 60.5a40.2 40.2 0 0 1 4.5-6c3-3.5 6-6.7 9.2-10 3.6-4 8-7.3 12-10.9a24.9 24.9 0 0 1 3.2-2A114 114 0 0 1 78 21c.2 0 .3-.2.4-.3a113.9 113.9 0 0 1 26.6-8.5 23.3 23.3 0 0 0 4.9-1c2.4 0 4.7-.8 7-.7.6-.4 1.3 0 1.8-.3h3a100.3 100.3 0 0 1 12.5 0 85.5 85.5 0 0 1 10.5 1l9.8 1.7 12.9 3.7 11.8 5c4.3 2 8.1 4.6 12.2 6.9l9.5 6.7 6.8 5.8q3.9 4.2 8 8.1a68.2 68.2 0 0 0 5.5 6.5 29.5 29.5 0 0 0 3.7 5 57.8 57.8 0 0 0 4.4 6.8 38 38 0 0 0 3.4 6l3.3 7.2 3.8 9.8 3 10.8 1.8 9.5a114.3 114.3 0 0 1 1 15.2l.3.4c0 2.8-.5 5.6-.3 8.4 0 2-.5 3.8-.4 5.8l-1.3 8.8-2 9.5-2.4 7.4-3.5 9.1-6 11.9-5.2 8a153.8 153.8 0 0 1-15.7 18.4c-3.9 3.4-7.7 6.7-11.9 9.8A117.1 117.1 0 0 1 168 239c-.3 0-.5.2-.8.3a151.4 151.4 0 0 1-18.2 4.8c-4.5.7-9 1.3-13.6 1.7-4.8-.1-9.7.5-14.5 0l-8.5-.8-8.1-1.3-7-1.7-8.9-2.7-8.5-3.4-6.8-3.4-7.3-4.1-2-1.4-9.9-7-7.5-6.8-7.1-7.4-6.1-7.5-4.7-6.7a67.9 67.9 0 0 0-3.7-6.1c-.8-2.5-2.6-4.6-3.5-7.1z"/><path fill="#293237" d="M134.3 10.2h-12.5c1.5-.7 3-.2 4.6-.3h3.5c1.5.1 3-.4 4.4.3zm-15.5 0c-.5.5-1.2.2-1.7.3.5-.5 1.1-.2 1.7-.3z"/><path fill="#1fc8a7" d="M98.1 158.5a6.5 6.5 0 0 1-7 .3c-1.7-5.4-3-11-4.4-16.3-3.8-13.8-7.4-27.6-11-41.4a4.7 4.7 0 0 1-.3-2.3c0-.5.4-.7.7-1 3.5-1.7 7.4-2 11.1-3a17.5 17.5 0 0 1 2.3-.5 4 4 0 0 1 2.1 4.1c1.2-2.2 1.4-5 4.5-5.7a23.3 23.3 0 0 0 2.8-.5 1.2 1.2 0 0 1 .8.2 2.8 2.8 0 0 1 .7 1.6l9.7 40.8a5.4 5.4 0 0 1 .3 1.4c-.2 1.8-1.4 3.1-2.2 4.7l-8.8 15.9a8.3 8.3 0 0 1-1.3 1.7zm82.6-1.4a2.8 2.8 0 0 1-1.3 1.3c-2.7 1.3-5.7 1.7-8.5 2.3l-35.2 8.4-17.3 4a3.1 3.1 0 0 1-1.8.1c-.8-.6-.2-1.2 0-1.7l7-12.8 12.3-22.3c.8-1.4 1.2-3 2.8-4a13.9 13.9 0 0 1 4.4 2l22 12.1c5 2.7 10 5.2 14.7 8a9.4 9.4 0 0 1 .9 2.6z"/><path fill="#198889" d="M116.4 173c5.2-1 10.2-2.3 15.3-3.5l46.5-11a7.2 7.2 0 0 1 1.2 0c-2.9 2.2-6.1 3.9-9.2 5.8l-53.4 32.8-6.3 3.9a6.5 6.5 0 0 1-8.7-1.3c-.3-.6 0-1 .3-1.4l13.3-24.3c.3-.4.5-.9 1-1zM99.5 92.4h-.7c-.4.3-.6.2-.8-.2-.9-.2 1.3-.2 0-.7-1.8-.6-4-1-4.8-3.2-.1-.4-.4-.8-.1-1.3l13-7.8 39-24c3.3-2 6.5-1.5 9.2 1.3-1.3 3.2-3.2 6.1-4.8 9.1l-8.6 15.7a4.7 4.7 0 0 1-1.6 2q-7.8 2.2-15.7 3.7l-4.7 1.2-8.2 2-9 2a3.5 3.5 0 0 1-2.2.2z"/><path fill="#68fde1" d="m116.4 173-14.6 26.7a5.7 5.7 0 0 1-1.8-5.8l3.9-16a8.1 8.1 0 0 1 1.2-2.6l50.4-75.6a4.8 4.8 0 0 1 2.2-2.3c.3.8-.2 1.3-.5 1.9-1.5 3-3.3 6-4.9 9a16 16 0 0 0-1.3 2.8 52.9 52.9 0 0 0-3.2 5.5 203.2 203.2 0 0 0-4.3 7.8c-1.3 2.5-2.8 4.9-4 7.3a1.7 1.7 0 0 1-.8 1c-1.5 1.7-2.4 4-3.6 6l-18.6 33.8a1.6 1.6 0 0 0 0 .5zm23-90 12.3-22.2c.8-1.5 1.3-3 2.6-4.3a7 7 0 0 1 1.3 6.7L151.9 78a8.7 8.7 0 0 1-1.3 2.7l-50.2 75.6a5 5 0 0 1-2.3 2.2l10.5-19.2a14 14 0 0 0 1.4-3c1-2.8 2.7-5.2 4-7.9l3.9-7c2.1-3.5 4-7.2 6-10.8l4-7.5c3.2-5.4 6.2-11 9.2-16.5a18 18 0 0 1 2.3-3.7zm41.3 74.1c-1-.5-.7-1.5-1-2.3-1.5-2.6-1.7-5.6-2.6-8.3a35 35 0 0 0-1.5-4.6c-.8-3.8-2-7.5-2.8-11.4a73.4 73.4 0 0 0-2.5-8.9l-5.9-22.3c-.2-.7-.8-1.6.3-2.2a6 6 0 0 1 3 3.1l17.9 36.2a5.6 5.6 0 0 1 .5 4.3c-1.7 5.5-3.3 11-5.5 16.4zM75.4 98.8l6 22 9.4 35.6c.2.7.9 1.5.3 2.4a6 6 0 0 1-2.8-2.9l-17.9-36a7.4 7.4 0 0 1-.3-5.8l4.4-13.4a3.8 3.8 0 0 1 1-2z"/><path fill="#1fc8a7" d="M164.8 97.1c-.6.5-.2 1-.1 1.6l5.9 22.1c0 .3.2.5 0 .8a2.2 2.2 0 0 1-1.8-.5l-17-9.2c-.4-.2-.8-.4-.9-.9-.4-1.2.5-1.9 1-2.7 1.8-3.7 4-7.1 5.8-10.9a6.4 6.4 0 0 1 7-.3z"/><path fill="#fdfefe" d="M93 87c.7 2.7 3 3.4 5.1 4.2 1 .4.8.6 0 1-.5.6-1.4.6-2.2.9-1.6.4-2.3 1.6-2.8 3l-1.2 2.7c-.8-1.5-1-3.2-2.1-4.4-1.6-.9-3.5-1.2-4.8-2.5-.2-.3-.1-.4.2-.5 3.6-.8 5.9-3 6.6-7.2z"/><path fill="#19898a" d="M85 91.9c1.6.7 3.5 1 4.8 2.5-1.8 1-4 1-5.9 1.6-2.6.8-5.2 1.2-7.8 1.8 2.4-2 5.2-3.3 7.8-5 .4-.3.9-.4 1.1-1z"/><path fill="#a4e8db" d="M118.1 121.5c-1.3 3.3-3.3 6.3-5 9.5l-3 5.4-10.3-43-.3-1c3.7-1.1 7.4-1.9 11.1-2.7a3 3 0 0 1 1 2l6.6 27.8a2.6 2.6 0 0 1 0 2z"/><path fill="#2aa197" d="M96 93a5.6 5.6 0 0 1 2.1-.9l.7.3a5 5 0 0 1-2.9.7z"/><path fill="#a4e8db" d="M176 141.9c1.2 1.7 1.2 3.7 1.8 5.6l1.9 7.3-15.8-8.5-25.2-13.7c1.1-3 3-5.6 4.5-8.4.7-.4 1.3 0 1.8.4l29.6 16a3.1 3.1 0 0 1 1.4 1.3z"/><path fill="#f9fbfb" d="M135.2 173.1a4.2 4.2 0 0 0 3-3.5 4.4 4.4 0 0 0 3.8 3.5 4.2 4.2 0 0 0-3.7 3.5c-.5-2-1.4-3-3-3.5z"/><path fill="#1fc8a7" d="m118.1 121.5-3.4-14.8-4-17 8-2a3 3 0 0 1 .9 1.7l4.5 19a4.2 4.2 0 0 1 .1 2.3 87.4 87.4 0 0 1-6 10.8zm21.3-38.6a65.2 65.2 0 0 1-3.9 7.5l-6.3 11.5a14.1 14.1 0 0 1-1 1.4c-.7-.5-.8-1.3-1-2l-2.5-11a20.6 20.6 0 0 0-1.2-3.7z"/><path fill="#a4e8db" d="M123.5 86.6c.9 0 1 .7 1 1.3l3.8 15.4-4 7.4c-2-7.6-3.9-15.3-5.5-23z"/><path fill="#1fc8a7" d="M176 141.9 145 125l-1.8-.8c1.4-2.6 2.6-5.3 4.3-7.8 1-.2 1.9.5 2.7 1 7.1 4 14.4 7.7 21.5 11.7a3.4 3.4 0 0 1 1.5 1.3l2.5 10a14.7 14.7 0 0 1 .3 1.5z"/><path fill="#a4e8db" d="m173.2 130.4-25.7-14c1.1-1.8 1.6-4 3.4-5.4l19.7 10.6c1.2 1.7 1.1 3.8 1.9 5.7a21.6 21.6 0 0 1 .7 3z"/><path fill="#fafdfc" d="M114 98a4.1 4.1 0 0 0 3.5-3.4A4.2 4.2 0 0 0 121 98c-1.8.6-3 1.4-3.5 3.2a4.5 4.5 0 0 0-3.5-3.1z"/></svg>
