<svg width="131" height="40" viewBox="0 0 131 40" fill="none" xmlns="http://www.w3.org/2000/svg">
<path d="M0.939324 10.9393C0.353539 11.5251 0.353538 12.4749 0.939323 13.0607L10.4853 22.6066C11.0711 23.1924 12.0208 23.1924 12.6066 22.6066C13.1924 22.0208 13.1924 21.0711 12.6066 20.4853L4.12131 12L12.6066 3.51472C13.1924 2.92893 13.1924 1.97918 12.6066 1.3934C12.0208 0.80761 11.0711 0.80761 10.4853 1.3934L0.939324 10.9393ZM94.7434 10.5L1.99998 10.5L1.99998 13.5L94.7434 13.5L94.7434 10.5Z" fill="#A3AFF6"/>
<path d="M130.061 29.0607C130.646 28.4749 130.646 27.5251 130.061 26.9394L120.515 17.3934C119.929 16.8076 118.979 16.8076 118.393 17.3934C117.808 17.9792 117.808 18.9289 118.393 19.5147L126.879 28L118.393 36.4853C117.808 37.0711 117.808 38.0208 118.393 38.6066C118.979 39.1924 119.929 39.1924 120.515 38.6066L130.061 29.0607ZM36.2566 29.5L129 29.5V26.5L36.2566 26.5V29.5Z" fill="white"/>
</svg>
