<svg xmlns="http://www.w3.org/2000/svg" viewBox="0 0 400 400" width="20" height="20" xml:space="preserve">
<path fill="#E535AB" d="M57.5 302.7 43 294.4 203.2 17l14.4 8.3z"/>
  <path fill="#E535AB" d="M39.8 272.2h320.3v16.6H39.8z"/>
  <path fill="#E535AB" d="M206.3 374 46.1 281.5l8.3-14.3 160.2 92.5z"/>
  <path fill="#E535AB" d="M345.5 133 185.3 40.3l8.3-14.3 160.2 92.5z"/>
  <path fill="#E535AB" d="m54.5 132.9-8.3-14.4L206.4 26l8.3 14.4z"/>
  <path fill="#E535AB" d="M342.6 302.7 182.4 25.3l14.4-8.3 160.1 277.4z"/>
  <path fill="#E535AB" d="M52.5 107.5h16.6v185H52.5z"/>
  <path fill="#E535AB" d="M330.9 107.5h16.6v185h-16.6z"/>
  <path fill="#E535AB" d="m203.5 367-7.2-12.6L335.6 274l7.3 12.5z"/>
  <path fill="#E535AB" d="M369.5 297.9a35 35 0 1 1-60.5-35 35 35 0 0 1 60.5 35"/>
  <path fill="#E535AB" d="M90.9 137a35 35 0 1 1-60.5-35 35 35 0 0 1 60.5 35"/>
  <path fill="#E535AB" d="M30.5 297.9A35 35 0 1 1 91.1 263 35 35 0 0 1 30.5 298"/>
  <path fill="#E535AB" d="M309.1 137a35 35 0 1 1 60.6-34.9 35 35 0 0 1-60.6 34.9"/>
  <path fill="#E535AB" d="M200 395.8a34.9 34.9 0 1 1 0-69.7 34.9 34.9 0 0 1 0 69.7"/>
  <path fill="#E535AB" d="M200 74a34.9 34.9 0 1 1 0-69.7 34.9 34.9 0 0 1 0 69.7"/>
</svg>
