<svg width="405" height="166" viewBox="0 0 405 166" fill="none" xmlns="http://www.w3.org/2000/svg">
<g clip-path="url(#clip0_1424_140)" filter="url(#filter0_d_1424_140)">
<path d="M269 112C281.703 112 292 101.703 292 89C292 76.2975 281.703 66 269 66C256.298 66 246 76.2975 246 89C246 101.703 256.298 112 269 112Z" fill="#00DCFA"/>
<path d="M273.856 73.1875C268.293 73.1875 263.568 77.4655 262.974 82.9726C257.464 83.5677 253.188 88.2928 253.188 93.8544C253.189 96.76 254.344 99.5461 256.398 101.601C258.453 103.655 261.239 104.811 264.144 104.812C269.707 104.812 274.451 100.535 275.026 95.0274C280.535 94.4323 284.813 89.7073 284.813 84.1456C284.811 81.24 283.656 78.4539 281.602 76.3992C279.548 74.3446 276.762 73.1894 273.856 73.1875V73.1875ZM282.245 85.3717C281.972 87.1687 281.131 88.8312 279.846 90.1165C278.56 91.4018 276.898 92.2426 275.101 92.5161V85.3717H282.245V85.3717ZM255.755 92.6283C256.025 90.8279 256.864 89.1612 258.15 87.8723C259.435 86.5833 261.1 85.7398 262.899 85.4652V92.6096H255.755V92.6283V92.6283ZM272.535 95.1007C272.238 97.1135 271.227 98.9523 269.687 100.281C268.146 101.61 266.179 102.34 264.144 102.339C262.11 102.34 260.143 101.61 258.603 100.282C257.063 98.953 256.052 97.1146 255.755 95.1022H272.535V95.1007ZM272.628 85.3717V92.6096H265.372V85.3717H272.628ZM282.245 82.8992H265.465C265.762 80.8865 266.773 79.0477 268.314 77.7188C269.854 76.39 271.822 75.6597 273.856 75.6614C275.89 75.6597 277.857 76.3898 279.397 77.7184C280.938 79.047 281.949 80.8855 282.245 82.8978V82.8992Z" fill="white"/>
</g>
<g clip-path="url(#clip1_1424_140)" filter="url(#filter1_d_1424_140)">
<path d="M152.5 140C172.106 140 188 124.106 188 104.5C188 84.8939 172.106 69 152.5 69C132.894 69 117 84.8939 117 104.5C117 124.106 132.894 140 152.5 140Z" fill="#FDC134"/>
<path fill-rule="evenodd" clip-rule="evenodd" d="M139.037 87.7821H152.56C160.785 87.7821 167.02 92.2034 169.34 98.6367H173.553V102.525H170.227C170.292 103.14 170.326 103.766 170.326 104.402V104.497C170.326 105.202 170.285 105.907 170.201 106.607H173.553V110.495H169.26C166.879 116.839 160.693 121.218 152.56 121.218H139.037V110.495H134.337V106.607H139.036V102.525H134.337V98.6367H139.036V87.7821H139.037ZM142.817 110.495V117.73H152.56C158.572 117.73 163.038 114.832 165.118 110.495H142.817ZM166.276 106.607H142.817V102.525H166.282C166.37 103.179 166.414 103.838 166.414 104.497V104.593C166.414 105.279 166.367 105.952 166.276 106.606V106.607ZM152.56 91.2647C158.6 91.2647 163.08 94.2387 165.146 98.6367H142.817V91.2647H152.56Z" fill="white"/>
</g>
<g filter="url(#filter2_d_1424_140)">
<circle cx="24.5002" cy="141.5" r="19.5" fill="white"/>
<g clip-path="url(#clip2_1424_140)">
<path d="M36.9853 130.975L35.9419 132.018C38.4316 134.741 39.8122 138.297 39.8122 141.986C39.8122 145.675 38.4316 149.231 35.9419 151.954L36.9853 152.997C39.7541 149.994 41.2913 146.059 41.2913 141.974C41.2913 137.889 39.7541 133.954 36.9853 130.951V130.975Z" fill="#5A5564"/>
<path d="M15.0428 131.065C17.7655 128.576 21.3213 127.195 25.0106 127.195C28.7 127.195 32.2557 128.576 34.9784 131.065L36.0218 130.022C33.0185 127.253 29.0833 125.716 24.9984 125.716C20.9136 125.716 16.9784 127.253 13.9751 130.022L15.0428 131.065Z" fill="#5A5564"/>
<path d="M14.0657 151.964C11.579 149.242 10.2001 145.689 10.2001 142.002C10.2001 138.315 11.579 134.761 14.0657 132.039L13.0223 130.996C10.2535 133.999 8.71631 137.934 8.71631 142.019C8.71631 146.104 10.2535 150.039 13.0223 153.042L14.0657 151.964Z" fill="#5A5564"/>
<path d="M34.9645 152.928C32.2419 155.417 28.6861 156.798 24.9968 156.798C21.3074 156.798 17.7516 155.417 15.029 152.928L13.9856 153.971C16.9889 156.74 20.9241 158.277 25.0089 158.277C29.0938 158.277 33.029 156.74 36.0323 153.971L34.9645 152.928Z" fill="#5A5564"/>
<path d="M31.5875 138.519C31.3788 136.341 29.5007 135.611 27.1253 135.388V132.39H25.2889V135.333H23.8212V132.39H21.9988V135.409H18.2739V137.374C18.2739 137.374 19.6303 137.35 19.6095 137.374C19.854 137.347 20.0995 137.417 20.2941 137.567C20.4888 137.718 20.6174 137.938 20.6528 138.181V146.445C20.6476 146.531 20.6252 146.615 20.587 146.692C20.5488 146.769 20.4955 146.837 20.4303 146.893C20.3663 146.951 20.2914 146.994 20.2101 147.022C20.1288 147.049 20.0428 147.06 19.9573 147.053C19.9816 147.074 18.6217 147.053 18.6217 147.053L18.2739 149.248H21.964V152.316H23.8004V149.293H25.2681V152.302H27.1079V149.269C30.2102 149.081 32.3735 148.316 32.6448 145.412C32.8639 143.075 31.7649 142.031 30.0085 141.61C31.0762 141.085 31.737 140.111 31.5875 138.519ZM29.0138 145.05C29.0138 147.332 25.1046 147.071 23.8595 147.071V143.023C25.1046 143.026 29.0138 142.668 29.0138 145.05ZM28.1617 139.346C28.1617 141.433 24.8994 141.179 23.863 141.179V137.5C24.8994 137.5 28.1617 137.173 28.1617 139.346Z" fill="#F09242"/>
<path d="M24.9968 161C21.2392 160.999 17.5662 159.884 14.4422 157.796C11.3182 155.708 8.88351 152.741 7.44588 149.269C6.00824 145.798 5.63227 141.978 6.3655 138.292C7.09873 134.607 8.90824 131.222 11.5652 128.565C14.2222 125.908 17.6074 124.098 21.2927 123.365C24.978 122.632 28.798 123.008 32.2696 124.446C35.7413 125.883 38.7087 128.318 40.7967 131.442C42.8847 134.566 43.9996 138.239 44.0003 141.997C44.0007 144.492 43.5095 146.964 42.5546 149.269C41.5998 151.575 40.2 153.67 38.4353 155.435C36.6706 157.2 34.5754 158.6 32.2696 159.554C29.9638 160.509 27.4925 161 24.9968 161V161ZM24.9968 124.482C21.5349 124.484 18.1516 125.513 15.2744 127.438C12.3972 129.364 10.1553 132.099 8.83211 135.298C7.50891 138.497 7.16377 142.016 7.84032 145.411C8.51688 148.806 10.1848 151.925 12.6331 154.372C15.0815 156.819 18.2005 158.486 21.5959 159.161C24.9913 159.836 28.5106 159.49 31.7091 158.165C34.9076 156.841 37.6416 154.598 39.5656 151.72C41.4896 148.842 42.5173 145.458 42.5186 141.997C42.5196 139.696 42.0669 137.417 41.1866 135.291C40.3063 133.165 39.0156 131.234 37.3882 129.607C35.7609 127.98 33.8289 126.69 31.7027 125.811C29.5764 124.931 27.2977 124.48 24.9968 124.482V124.482Z" fill="#282138"/>
</g>
</g>
<g clip-path="url(#clip3_1424_140)" filter="url(#filter3_d_1424_140)">
<path d="M370.5 64C386.848 64 400 50.848 400 34.5C400 18.152 386.848 5 370.5 5C354.152 5 341 18.152 341 34.5C341 50.848 354.152 64 370.5 64Z" fill="#2775CA"/>
<path d="M378.613 39.1707C378.613 34.8687 376.032 33.3937 370.869 32.7793C367.182 32.2875 366.444 31.3043 366.444 29.5832C366.444 27.8622 367.673 26.7562 370.132 26.7562C372.344 26.7562 373.573 27.4937 374.188 29.3375C374.311 29.7062 374.68 29.952 375.048 29.952H377.015C377.507 29.952 377.875 29.5832 377.875 29.0918V28.9687C377.384 26.2645 375.171 24.175 372.344 23.9293V20.9793C372.344 20.4875 371.975 20.1187 371.361 19.9957H369.517C369.025 19.9957 368.657 20.3645 368.534 20.9793V23.8062C364.846 24.298 362.511 26.7562 362.511 29.8293C362.511 33.8855 364.969 35.4832 370.132 36.098C373.573 36.7125 374.68 37.45 374.68 39.4168C374.68 41.3835 372.959 42.7355 370.623 42.7355C367.427 42.7355 366.321 41.3832 365.952 39.5395C365.83 39.048 365.461 38.802 365.092 38.802H363.002C362.511 38.802 362.142 39.1707 362.142 39.6625V39.7855C362.634 42.8582 364.6 45.0707 368.657 45.6855V48.6355C368.657 49.127 369.025 49.4957 369.64 49.6187H371.484C371.975 49.6187 372.344 49.25 372.467 48.6355V45.6855C376.155 45.0707 378.613 42.4895 378.613 39.1707V39.1707Z" fill="white"/>
<path d="M364.231 52.077C354.644 48.6355 349.727 37.9417 353.292 28.477C355.136 23.3145 359.192 19.3812 364.231 17.5375C364.723 17.2917 364.969 16.923 364.969 16.3082V14.5875C364.969 14.0957 364.723 13.727 364.231 13.6042C364.108 13.6042 363.863 13.6042 363.74 13.727C352.063 17.4145 345.671 29.8292 349.358 41.5062C351.571 48.3895 356.856 53.675 363.74 55.8875C364.231 56.1332 364.723 55.8875 364.846 55.3957C364.969 55.273 364.969 55.15 364.969 54.9042V53.1832C364.969 52.8145 364.6 52.323 364.231 52.077ZM377.261 13.727C376.769 13.4812 376.277 13.727 376.154 14.2187C376.031 14.3417 376.031 14.4645 376.031 14.7105V16.4312C376.031 16.923 376.4 17.4145 376.769 17.6605C386.356 21.102 391.273 31.7957 387.708 41.2605C385.865 46.423 381.808 50.3562 376.769 52.2C376.277 52.4457 376.031 52.8145 376.031 53.4292V55.15C376.031 55.6417 376.277 56.0105 376.769 56.1332C376.892 56.1332 377.138 56.1332 377.261 56.0105C388.938 52.323 395.329 39.9082 391.642 28.2312C389.429 21.225 384.021 15.9395 377.261 13.727V13.727Z" fill="white"/>
<g clip-path="url(#clip4_1424_140)">
<path d="M373.6 28.9814L373.512 29.0699C373.723 29.3009 373.84 29.6025 373.84 29.9154C373.84 30.2283 373.723 30.5299 373.512 30.7609L373.6 30.8494C373.835 30.5946 373.965 30.2608 373.965 29.9144C373.965 29.5679 373.835 29.2341 373.6 28.9794V28.9814Z" fill="#5A5564"/>
<path d="M371.739 28.9891C371.97 28.778 372.272 28.6609 372.584 28.6609C372.897 28.6609 373.199 28.778 373.43 28.9891L373.518 28.9006C373.264 28.6658 372.93 28.5354 372.583 28.5354C372.237 28.5354 371.903 28.6658 371.648 28.9006L371.739 28.9891Z" fill="#5A5564"/>
<path d="M371.656 30.7617C371.445 30.5308 371.328 30.2294 371.328 29.9167C371.328 29.604 371.445 29.3025 371.656 29.0717L371.568 28.9832C371.333 29.2379 371.203 29.5717 371.203 29.9182C371.203 30.2646 371.333 30.5984 371.568 30.8532L371.656 30.7617Z" fill="#5A5564"/>
<path d="M373.429 30.8435C373.198 31.0546 372.897 31.1717 372.584 31.1717C372.271 31.1717 371.969 31.0546 371.738 30.8435L371.65 30.932C371.904 31.1668 372.238 31.2972 372.585 31.2972C372.931 31.2972 373.265 31.1668 373.52 30.932L373.429 30.8435Z" fill="#5A5564"/>
<path d="M373.142 29.6213C373.125 29.4366 372.965 29.3747 372.764 29.3558V29.1015H372.608V29.3511H372.484V29.1015H372.329V29.3576H372.013V29.5242C372.013 29.5242 372.128 29.5222 372.126 29.5242C372.147 29.522 372.168 29.5278 372.185 29.5406C372.201 29.5533 372.212 29.572 372.215 29.5927V30.2936C372.215 30.3009 372.213 30.308 372.209 30.3145C372.206 30.3211 372.202 30.3269 372.196 30.3316C372.191 30.3365 372.184 30.3402 372.177 30.3425C372.171 30.3449 372.163 30.3458 372.156 30.3452C372.158 30.347 372.043 30.3452 372.043 30.3452L372.013 30.5314H372.326V30.7916H372.482V30.5352H372.606V30.7904H372.762V30.5331C373.026 30.5172 373.209 30.4523 373.232 30.206C373.251 30.0077 373.157 29.9192 373.009 29.8835C373.099 29.839 373.155 29.7564 373.142 29.6213ZM372.924 30.1753C372.924 30.3688 372.593 30.3467 372.487 30.3467V30.0033C372.593 30.0036 372.924 29.9732 372.924 30.1753ZM372.852 29.6915C372.852 29.8685 372.575 29.847 372.487 29.847V29.5349C372.575 29.5349 372.852 29.5071 372.852 29.6915Z" fill="#F09242"/>
<path d="M372.583 31.5281C372.265 31.5281 371.953 31.4335 371.688 31.2564C371.423 31.0793 371.217 30.8276 371.095 30.5331C370.973 30.2387 370.941 29.9147 371.003 29.6021C371.065 29.2895 371.219 29.0024 371.444 28.777C371.67 28.5516 371.957 28.3981 372.269 28.3359C372.582 28.2738 372.906 28.3056 373.2 28.4276C373.495 28.5495 373.747 28.756 373.924 29.021C374.101 29.286 374.195 29.5975 374.195 29.9163C374.195 30.1279 374.154 30.3376 374.073 30.5331C373.992 30.7287 373.873 30.9064 373.723 31.0561C373.574 31.2058 373.396 31.3245 373.2 31.4055C373.005 31.4865 372.795 31.5282 372.583 31.5281V31.5281ZM372.583 28.4306C372.29 28.4309 372.003 28.5181 371.759 28.6814C371.515 28.8447 371.325 29.0767 371.212 29.348C371.1 29.6194 371.071 29.9179 371.128 30.2059C371.186 30.4939 371.327 30.7584 371.535 30.9659C371.742 31.1735 372.007 31.3149 372.295 31.3722C372.583 31.4294 372.882 31.4 373.153 31.2877C373.424 31.1754 373.656 30.9851 373.819 30.741C373.982 30.4969 374.07 30.2099 374.07 29.9163C374.07 29.7211 374.031 29.5278 373.957 29.3475C373.882 29.1672 373.773 29.0034 373.635 28.8654C373.496 28.7274 373.333 28.618 373.152 28.5434C372.972 28.4688 372.779 28.4305 372.583 28.4306V28.4306Z" fill="#282138"/>
</g>
</g>
<defs>
<filter id="filter0_d_1424_140" x="241" y="61" width="56" height="56" filterUnits="userSpaceOnUse" color-interpolation-filters="sRGB">
<feFlood flood-opacity="0" result="BackgroundImageFix"/>
<feColorMatrix in="SourceAlpha" type="matrix" values="0 0 0 0 0 0 0 0 0 0 0 0 0 0 0 0 0 0 127 0" result="hardAlpha"/>
<feOffset/>
<feGaussianBlur stdDeviation="2.5"/>
<feColorMatrix type="matrix" values="0 0 0 0 0 0 0 0 0 0 0 0 0 0 0 0 0 0 0.15 0"/>
<feBlend mode="normal" in2="BackgroundImageFix" result="effect1_dropShadow_1424_140"/>
<feBlend mode="normal" in="SourceGraphic" in2="effect1_dropShadow_1424_140" result="shape"/>
</filter>
<filter id="filter1_d_1424_140" x="112" y="64" width="81" height="81" filterUnits="userSpaceOnUse" color-interpolation-filters="sRGB">
<feFlood flood-opacity="0" result="BackgroundImageFix"/>
<feColorMatrix in="SourceAlpha" type="matrix" values="0 0 0 0 0 0 0 0 0 0 0 0 0 0 0 0 0 0 127 0" result="hardAlpha"/>
<feOffset/>
<feGaussianBlur stdDeviation="2.5"/>
<feColorMatrix type="matrix" values="0 0 0 0 0 0 0 0 0 0 0 0 0 0 0 0 0 0 0.15 0"/>
<feBlend mode="normal" in2="BackgroundImageFix" result="effect1_dropShadow_1424_140"/>
<feBlend mode="normal" in="SourceGraphic" in2="effect1_dropShadow_1424_140" result="shape"/>
</filter>
<filter id="filter2_d_1424_140" x="0.000244141" y="117" width="49" height="49" filterUnits="userSpaceOnUse" color-interpolation-filters="sRGB">
<feFlood flood-opacity="0" result="BackgroundImageFix"/>
<feColorMatrix in="SourceAlpha" type="matrix" values="0 0 0 0 0 0 0 0 0 0 0 0 0 0 0 0 0 0 127 0" result="hardAlpha"/>
<feOffset/>
<feGaussianBlur stdDeviation="2.5"/>
<feColorMatrix type="matrix" values="0 0 0 0 0 0 0 0 0 0 0 0 0 0 0 0 0 0 0.15 0"/>
<feBlend mode="normal" in2="BackgroundImageFix" result="effect1_dropShadow_1424_140"/>
<feBlend mode="normal" in="SourceGraphic" in2="effect1_dropShadow_1424_140" result="shape"/>
</filter>
<filter id="filter3_d_1424_140" x="336" y="0" width="69" height="69" filterUnits="userSpaceOnUse" color-interpolation-filters="sRGB">
<feFlood flood-opacity="0" result="BackgroundImageFix"/>
<feColorMatrix in="SourceAlpha" type="matrix" values="0 0 0 0 0 0 0 0 0 0 0 0 0 0 0 0 0 0 127 0" result="hardAlpha"/>
<feOffset/>
<feGaussianBlur stdDeviation="2.5"/>
<feColorMatrix type="matrix" values="0 0 0 0 0 0 0 0 0 0 0 0 0 0 0 0 0 0 0.15 0"/>
<feBlend mode="normal" in2="BackgroundImageFix" result="effect1_dropShadow_1424_140"/>
<feBlend mode="normal" in="SourceGraphic" in2="effect1_dropShadow_1424_140" result="shape"/>
</filter>
<clipPath id="clip0_1424_140">
<rect width="46" height="46" fill="white" transform="translate(246 66)"/>
</clipPath>
<clipPath id="clip1_1424_140">
<rect width="71" height="71" fill="white" transform="translate(117 69)"/>
</clipPath>
<clipPath id="clip2_1424_140">
<rect width="38" height="38" fill="white" transform="translate(6.00024 123)"/>
</clipPath>
<clipPath id="clip3_1424_140">
<rect width="59" height="59" fill="white" transform="translate(341 5)"/>
</clipPath>
<clipPath id="clip4_1424_140">
<rect width="3.22317" height="3.22317" fill="white" transform="translate(370.972 28.305)"/>
</clipPath>
</defs>
</svg>
