<svg width="30" height="35" viewBox="0 0 30 35" fill="none" xmlns="http://www.w3.org/2000/svg">
<g filter="url(#filter0_d_812_32)">
<path d="M17.2222 20.5082C17.2222 19.8967 17.0052 19.3745 16.5712 18.9418C16.1372 18.5091 15.6134 18.2927 15 18.2927C14.3866 18.2927 13.8628 18.5091 13.4288 18.9418C12.9948 19.3745 12.7778 19.8967 12.7778 20.5082C12.7778 20.9352 12.8877 21.3217 13.1076 21.6679C13.3275 22.0141 13.6227 22.2852 13.9931 22.4814L12.7951 26.445C12.7373 26.6181 12.7662 26.7796 12.8819 26.9296C12.9977 27.0796 13.1481 27.1546 13.3333 27.1546H16.6667C16.8519 27.1546 17.0023 27.0796 17.1181 26.9296C17.2338 26.7796 17.2627 26.6181 17.2049 26.445L16.0069 22.4814C16.3773 22.2852 16.6725 22.0141 16.8924 21.6679C17.1123 21.3217 17.2222 20.9352 17.2222 20.5082ZM10.5556 16.0773H19.4444V12.7541C19.4444 11.5309 19.0104 10.4867 18.1424 9.62124C17.2743 8.75582 16.2269 8.32311 15 8.32311C13.7731 8.32311 12.7257 8.75582 11.8576 9.62124C10.9896 10.4867 10.5556 11.5309 10.5556 12.7541V16.0773ZM25 17.7389V27.7085C25 28.1701 24.838 28.5624 24.5139 28.8855C24.1898 29.2086 23.7963 29.3701 23.3333 29.3701H6.66667C6.2037 29.3701 5.81019 29.2086 5.48611 28.8855C5.16204 28.5624 5 28.1701 5 27.7085V17.7389C5 17.2773 5.16204 16.885 5.48611 16.5619C5.81019 16.2388 6.2037 16.0773 6.66667 16.0773H7.22222V12.7541C7.22222 10.6309 7.98611 8.80774 9.51389 7.28461C11.0417 5.76147 12.8704 4.9999 15 4.9999C17.1296 4.9999 18.9583 5.76147 20.4861 7.28461C22.0139 8.80774 22.7778 10.6309 22.7778 12.7541V16.0773H23.3333C23.7963 16.0773 24.1898 16.2388 24.5139 16.5619C24.838 16.885 25 17.2773 25 17.7389Z" fill="#F2A040"/>
</g>
<defs>
<filter id="filter0_d_812_32" x="0" y="-0.00012207" width="30" height="34.3702" filterUnits="userSpaceOnUse" color-interpolation-filters="sRGB">
<feFlood flood-opacity="0" result="BackgroundImageFix"/>
<feColorMatrix in="SourceAlpha" type="matrix" values="0 0 0 0 0 0 0 0 0 0 0 0 0 0 0 0 0 0 127 0" result="hardAlpha"/>
<feOffset/>
<feGaussianBlur stdDeviation="2.5"/>
<feColorMatrix type="matrix" values="0 0 0 0 0.945833 0 0 0 0 0.435477 0 0 0 0 0.216753 0 0 0 0.15 0"/>
<feBlend mode="normal" in2="BackgroundImageFix" result="effect1_dropShadow_812_32"/>
<feBlend mode="normal" in="SourceGraphic" in2="effect1_dropShadow_812_32" result="shape"/>
</filter>
</defs>
</svg>
