
<svg width="45" height="54" viewBox="0 0 45 54" fill="none" xmlns="http://www.w3.org/2000/svg">
	<path d="M10.9393 53.0607C11.5251 53.6464 12.4749 53.6464 13.0607 53.0607L22.6066 43.5147C23.1924 42.9289 23.1924 41.9792 22.6066 41.3934C22.0208 40.8076 21.0711 40.8076 20.4853 41.3934L12 49.8787L3.51472 41.3934C2.92893 40.8076 1.97919 40.8076 1.3934 41.3934C0.807612 41.9792 0.807612 42.9289 1.3934 43.5147L10.9393 53.0607ZM34.0607 0.93934C33.4749 0.353553 32.5251 0.353553 31.9393 0.93934L22.3934 10.4853C21.8076 11.0711 21.8076 12.0208 22.3934 12.6066C22.9792 13.1924 23.9289 13.1924 24.5147 12.6066L33 4.12132L41.4853 12.6066C42.0711 13.1924 43.0208 13.1924 43.6066 12.6066C44.1924 12.0208 44.1924 11.0711 43.6066 10.4853L34.0607 0.93934ZM10.5 2L10.5 52L13.5 52L13.5 2L10.5 2ZM34.5 52L34.5 2L31.5 2L31.5 52L34.5 52Z" fill="currentColor"/>
</svg>