<svg width="44" height="30" viewBox="0 0 44 30" fill="none" xmlns="http://www.w3.org/2000/svg">
<g clip-path="url(#clip0_812_7)" filter="url(#filter0_d_812_7)">
<path d="M14.6 24.2C19.9019 24.2 24.2 19.9019 24.2 14.6C24.2 9.29807 19.9019 5 14.6 5C9.29807 5 5 9.29807 5 14.6C5 19.9019 9.29807 24.2 14.6 24.2Z" fill="#FDC134"/>
<path fill-rule="evenodd" clip-rule="evenodd" d="M10.9591 10.0791H14.616C16.8404 10.0791 18.5265 11.2747 19.1538 13.0144H20.293V14.066H19.3938C19.4114 14.2322 19.4204 14.4014 19.4204 14.5734V14.5992C19.4204 14.7899 19.4092 14.9804 19.3867 15.1697H20.293V16.2213H19.1321C18.4883 17.9368 16.8153 19.121 14.616 19.121H10.9591V16.2213H9.68823V15.1697H10.959V14.066H9.68823V13.0144H10.959V10.0791H10.9591ZM11.9815 16.2213V18.1777H14.616C16.2418 18.1777 17.4497 17.3941 18.012 16.2213H11.9815ZM18.3252 15.1697H11.9815V14.066H18.3268C18.3507 14.2427 18.3625 14.4209 18.3624 14.5992V14.6251C18.3624 14.8108 18.3498 14.9927 18.3252 15.1696V15.1697ZM14.616 11.0209C16.2493 11.0209 17.4609 11.8251 18.0197 13.0144H11.9815V11.0209H14.616Z" fill="white"/>
</g>
<g clip-path="url(#clip1_812_7)" filter="url(#filter1_d_812_7)">
<path d="M20.8 24.2C26.1019 24.2 30.4 19.9019 30.4 14.6C30.4 9.29807 26.1019 5 20.8 5C15.498 5 11.2 9.29807 11.2 14.6C11.2 19.9019 15.498 24.2 20.8 24.2Z" fill="#00DCFA"/>
<path d="M22.8268 8C20.5048 8 18.5326 9.7856 18.2848 12.0842C15.985 12.3326 14.2 14.3048 14.2 16.6262C14.2006 17.8389 14.6826 19.0019 15.5401 19.8595C16.3976 20.717 17.5604 21.1992 18.7732 21.2C21.0952 21.2 23.0752 19.4144 23.3152 17.1158C25.6144 16.8674 27.4 14.8952 27.4 12.5738C27.3993 11.3611 26.9173 10.1981 26.0598 9.34055C25.2023 8.48295 24.0395 8.00079 22.8268 8ZM26.3284 13.0856C26.2142 13.8356 25.8632 14.5295 25.3268 15.066C24.7903 15.6025 24.0964 15.9534 23.3464 16.0676V13.0856H26.3284ZM15.2716 16.1144C15.3842 15.3629 15.7345 14.6673 16.2711 14.1293C16.8077 13.5913 17.5024 13.2392 18.2536 13.1246V16.1066H15.2716V16.1144ZM22.2754 17.1464C22.1515 17.9865 21.7295 18.754 21.0865 19.3087C20.4434 19.8633 19.6223 20.1681 18.7732 20.1674C17.9241 20.1681 17.1032 19.8634 16.4603 19.3088C15.8174 18.7543 15.3954 17.9869 15.2716 17.147H22.2754V17.1464ZM22.3144 13.0856V16.1066H19.2856V13.0856H22.3144ZM26.3284 12.0536H19.3246C19.4484 11.2135 19.8704 10.446 20.5134 9.89134C21.1565 9.33668 21.9776 9.03187 22.8268 9.0326C23.6758 9.03187 24.4967 9.33662 25.1396 9.89117C25.7825 10.4457 26.2045 11.2131 26.3284 12.053V12.0536Z" fill="white"/>
</g>
<g clip-path="url(#clip2_812_7)" filter="url(#filter2_d_812_7)">
<path d="M29.4 24.2C34.7201 24.2 39 19.92 39 14.6C39 9.27997 34.7201 5 29.4 5C24.08 5 19.8 9.27997 19.8 14.6C19.8 19.92 24.08 24.2 29.4 24.2Z" fill="#2775CA"/>
<path d="M32.0399 16.12C32.0399 14.72 31.1999 14.24 29.5199 14.0401C28.3199 13.88 28.0799 13.5601 28.0799 13C28.0799 12.4399 28.4799 12.08 29.2799 12.08C29.9999 12.08 30.3999 12.32 30.5999 12.92C30.6399 13.04 30.7599 13.12 30.8799 13.12H31.5199C31.6799 13.12 31.7999 13 31.7999 12.8401V12.8C31.6399 11.92 30.9199 11.24 29.9999 11.1601V10.2001C29.9999 10.04 29.8799 9.92004 29.6799 9.88H29.0799C28.9199 9.88 28.7999 10 28.7599 10.2001V11.12C27.5599 11.2801 26.7999 12.08 26.7999 13.0801C26.7999 14.4001 27.5999 14.92 29.2799 15.1201C30.3999 15.32 30.7599 15.56 30.7599 16.2001C30.7599 16.8401 30.1999 17.2801 29.4399 17.2801C28.3999 17.2801 28.0399 16.84 27.9199 16.24C27.8799 16.0801 27.7599 16 27.6399 16H26.9599C26.7999 16 26.6799 16.12 26.6799 16.28V16.3201C26.8399 17.32 27.4799 18.04 28.7999 18.2401V19.2001C28.7999 19.36 28.9199 19.48 29.1199 19.52H29.7199C29.8799 19.52 29.9999 19.4 30.0399 19.2001V18.2401C31.2399 18.04 32.0399 17.2 32.0399 16.12Z" fill="white"/>
<path d="M27.36 20.32C24.2399 19.2 22.6399 15.72 23.8 12.64C24.4 10.96 25.72 9.68002 27.36 9.08002C27.52 9.00005 27.5999 8.88005 27.5999 8.67998V8.12002C27.5999 7.95998 27.52 7.83998 27.36 7.80005C27.3199 7.80005 27.24 7.80005 27.1999 7.83998C23.4 9.03998 21.3199 13.08 22.5199 16.88C23.2399 19.12 24.9599 20.84 27.1999 21.56C27.36 21.64 27.52 21.56 27.5599 21.4C27.6 21.36 27.5999 21.32 27.5999 21.24V20.68C27.5999 20.56 27.4799 20.4 27.36 20.32ZM31.6 7.83998C31.44 7.76002 31.2799 7.83998 31.24 8.00002C31.2 8.04005 31.2 8.07998 31.2 8.16005V8.72002C31.2 8.88005 31.32 9.03998 31.4399 9.12005C34.56 10.24 36.16 13.72 34.9999 16.8C34.3999 18.48 33.0799 19.76 31.4399 20.36C31.2799 20.44 31.2 20.56 31.2 20.76V21.32C31.2 21.48 31.2799 21.6 31.4399 21.64C31.48 21.64 31.56 21.64 31.6 21.6C35.4 20.4 37.48 16.36 36.28 12.56C35.56 10.28 33.7999 8.55998 31.6 7.83998Z" fill="white"/>
<g clip-path="url(#clip3_812_7)">
<path d="M30.4089 12.8041L30.3801 12.8329C30.4488 12.9081 30.487 13.0062 30.487 13.1081C30.487 13.2099 30.4488 13.3081 30.3801 13.3832L30.4089 13.412C30.4854 13.3291 30.5278 13.2205 30.5278 13.1077C30.5278 12.995 30.4854 12.8864 30.4089 12.8035V12.8041Z" fill="#5A5564"/>
<path d="M29.8034 12.8066C29.8785 12.7379 29.9767 12.6998 30.0785 12.6998C30.1804 12.6998 30.2785 12.7379 30.3537 12.8066L30.3825 12.7778C30.2996 12.7014 30.1909 12.6589 30.0782 12.6589C29.9654 12.6589 29.8568 12.7014 29.7739 12.7778L29.8034 12.8066Z" fill="#5A5564"/>
<path d="M29.7763 13.3835C29.7077 13.3083 29.6696 13.2102 29.6696 13.1085C29.6696 13.0067 29.7077 12.9086 29.7763 12.8335L29.7475 12.8047C29.6711 12.8876 29.6287 12.9962 29.6287 13.109C29.6287 13.2217 29.6711 13.3303 29.7475 13.4132L29.7763 13.3835Z" fill="#5A5564"/>
<path d="M30.3532 13.41C30.2781 13.4788 30.1799 13.5169 30.0781 13.5169C29.9763 13.5169 29.8781 13.4788 29.803 13.41L29.7742 13.4388C29.8571 13.5153 29.9657 13.5577 30.0784 13.5577C30.1912 13.5577 30.2998 13.5153 30.3827 13.4388L30.3532 13.41Z" fill="#5A5564"/>
<path d="M30.2601 13.0123C30.2543 12.9522 30.2025 12.932 30.1369 12.9259V12.8431H30.0862V12.9244H30.0457V12.8431H29.9954V12.9265H29.8926V12.9807C29.8926 12.9807 29.93 12.98 29.9294 12.9807C29.9362 12.98 29.943 12.9819 29.9483 12.986C29.9537 12.9902 29.9573 12.9963 29.9582 13.003V13.2311C29.9581 13.2334 29.9575 13.2358 29.9564 13.2379C29.9554 13.24 29.9539 13.2419 29.9521 13.2435C29.9503 13.245 29.9483 13.2462 29.946 13.247C29.9438 13.2478 29.9414 13.2481 29.939 13.2479C29.9397 13.2485 29.9022 13.2479 29.9022 13.2479L29.8926 13.3085H29.9944V13.3931H30.0451V13.3097H30.0856V13.3927H30.1364V13.309C30.2221 13.3038 30.2818 13.2827 30.2893 13.2026C30.2953 13.1381 30.265 13.1093 30.2165 13.0976C30.246 13.0831 30.2642 13.0563 30.2601 13.0123ZM30.189 13.1926C30.189 13.2556 30.0811 13.2484 30.0468 13.2484V13.1366C30.0811 13.1367 30.189 13.1268 30.189 13.1926ZM30.1655 13.0351C30.1655 13.0927 30.0755 13.0857 30.0469 13.0857V12.9842C30.0755 12.9842 30.1655 12.9751 30.1655 13.0351Z" fill="#F09242"/>
<path d="M30.0781 13.6329C29.9743 13.6329 29.873 13.6021 29.7867 13.5445C29.7005 13.4868 29.6333 13.4049 29.5936 13.3091C29.5539 13.2133 29.5436 13.1078 29.5638 13.0061C29.584 12.9044 29.634 12.8109 29.7073 12.7376C29.7807 12.6643 29.8741 12.6143 29.9758 12.5941C30.0775 12.5738 30.183 12.5842 30.2788 12.6239C30.3746 12.6636 30.4565 12.7308 30.5142 12.817C30.5718 12.9032 30.6026 13.0046 30.6026 13.1083C30.6026 13.1772 30.5891 13.2454 30.5627 13.3091C30.5363 13.3727 30.4977 13.4306 30.449 13.4793C30.4003 13.528 30.3425 13.5666 30.2788 13.593C30.2152 13.6193 30.147 13.6329 30.0781 13.6329ZM30.0781 12.6249C29.9825 12.625 29.8891 12.6534 29.8097 12.7065C29.7303 12.7596 29.6684 12.8351 29.6319 12.9234C29.5954 13.0117 29.5858 13.1089 29.6045 13.2026C29.6232 13.2963 29.6692 13.3824 29.7368 13.4499C29.8044 13.5175 29.8905 13.5635 29.9842 13.5821C30.0779 13.6008 30.1751 13.5912 30.2633 13.5546C30.3516 13.5181 30.4271 13.4562 30.4802 13.3767C30.5333 13.2973 30.5617 13.2039 30.5617 13.1083C30.5617 13.0448 30.5492 12.9819 30.5249 12.9233C30.5006 12.8646 30.465 12.8113 30.4201 12.7664C30.3752 12.7215 30.3219 12.6859 30.2632 12.6616C30.2045 12.6373 30.1416 12.6248 30.0781 12.6249Z" fill="#282138"/>
</g>
</g>
<defs>
<filter id="filter0_d_812_7" x="0" y="0" width="29.2" height="29.2" filterUnits="userSpaceOnUse" color-interpolation-filters="sRGB">
<feFlood flood-opacity="0" result="BackgroundImageFix"/>
<feColorMatrix in="SourceAlpha" type="matrix" values="0 0 0 0 0 0 0 0 0 0 0 0 0 0 0 0 0 0 127 0" result="hardAlpha"/>
<feOffset/>
<feGaussianBlur stdDeviation="2.5"/>
<feColorMatrix type="matrix" values="0 0 0 0 0 0 0 0 0 0 0 0 0 0 0 0 0 0 0.15 0"/>
<feBlend mode="normal" in2="BackgroundImageFix" result="effect1_dropShadow_812_7"/>
<feBlend mode="normal" in="SourceGraphic" in2="effect1_dropShadow_812_7" result="shape"/>
</filter>
<filter id="filter1_d_812_7" x="6.19995" y="0" width="29.2" height="29.2" filterUnits="userSpaceOnUse" color-interpolation-filters="sRGB">
<feFlood flood-opacity="0" result="BackgroundImageFix"/>
<feColorMatrix in="SourceAlpha" type="matrix" values="0 0 0 0 0 0 0 0 0 0 0 0 0 0 0 0 0 0 127 0" result="hardAlpha"/>
<feOffset/>
<feGaussianBlur stdDeviation="2.5"/>
<feColorMatrix type="matrix" values="0 0 0 0 0 0 0 0 0 0 0 0 0 0 0 0 0 0 0.15 0"/>
<feBlend mode="normal" in2="BackgroundImageFix" result="effect1_dropShadow_812_7"/>
<feBlend mode="normal" in="SourceGraphic" in2="effect1_dropShadow_812_7" result="shape"/>
</filter>
<filter id="filter2_d_812_7" x="14.8" y="0" width="29.2" height="29.2" filterUnits="userSpaceOnUse" color-interpolation-filters="sRGB">
<feFlood flood-opacity="0" result="BackgroundImageFix"/>
<feColorMatrix in="SourceAlpha" type="matrix" values="0 0 0 0 0 0 0 0 0 0 0 0 0 0 0 0 0 0 127 0" result="hardAlpha"/>
<feOffset/>
<feGaussianBlur stdDeviation="2.5"/>
<feColorMatrix type="matrix" values="0 0 0 0 0 0 0 0 0 0 0 0 0 0 0 0 0 0 0.15 0"/>
<feBlend mode="normal" in2="BackgroundImageFix" result="effect1_dropShadow_812_7"/>
<feBlend mode="normal" in="SourceGraphic" in2="effect1_dropShadow_812_7" result="shape"/>
</filter>
<clipPath id="clip0_812_7">
<rect width="19.2" height="19.2" fill="white" transform="translate(5 5)"/>
</clipPath>
<clipPath id="clip1_812_7">
<rect width="19.2" height="19.2" fill="white" transform="translate(11.2 5)"/>
</clipPath>
<clipPath id="clip2_812_7">
<rect width="19.2" height="19.2" fill="white" transform="translate(19.8 5)"/>
</clipPath>
<clipPath id="clip3_812_7">
<rect width="1.0489" height="1.04889" fill="white" transform="translate(29.5537 12.584)"/>
</clipPath>
</defs>
</svg>
